<svg width="457" height="49" viewBox="0 0 457 49" fill="none" xmlns="http://www.w3.org/2000/svg">
<path d="M2.25352 1.45454V48H0.798973V1.45454H2.25352ZM84.6681 1.45454V48H83.2135L51.3953 4.18182H51.2135V48H49.759V1.45454H51.2135L83.0317 45.2727H83.2135V1.45454H84.6681ZM167.066 1.45454V48H165.611L133.793 4.18182H133.611V48H132.156V1.45454H133.611L165.429 45.2727H165.611V1.45454H167.066ZM210.918 48H209.372L226.009 1.45454H228.009L244.645 48H243.099L227.099 3.27272H226.918L210.918 48ZM216.19 30.8182H237.827V32.2727H216.19V30.8182ZM283.679 1.45454L298.315 23.3636H298.497L313.133 1.45454H314.951L299.315 24.7273L314.951 48H313.133L298.497 26.0909H298.315L283.679 48H281.861L297.497 24.7273L281.861 1.45454H283.679ZM352.258 1.45454H354.076L369.622 24.2727H369.804L385.349 1.45454H387.167L370.44 25.9091V48H368.985V25.9091L352.258 1.45454ZM454.468 13.0909C454.241 9.90909 453.021 7.29545 450.809 5.25C448.612 3.20454 445.71 2.18182 442.104 2.18182C439.741 2.18182 437.627 2.63636 435.764 3.54545C433.9 4.45454 432.43 5.70454 431.354 7.29545C430.279 8.87121 429.741 10.6818 429.741 12.7273C429.741 13.9091 429.938 15 430.332 16C430.726 17 431.324 17.9167 432.127 18.75C432.945 19.5682 433.968 20.3106 435.195 20.9773C436.438 21.6288 437.892 22.2121 439.559 22.7273L444.832 24.3636C446.847 24.9848 448.589 25.6818 450.059 26.4545C451.529 27.2273 452.741 28.0985 453.695 29.0682C454.665 30.0227 455.385 31.0909 455.854 32.2727C456.324 33.4394 456.559 34.7424 456.559 36.1818C456.559 38.6061 455.938 40.7652 454.695 42.6591C453.453 44.553 451.718 46.0379 449.491 47.1136C447.264 48.1894 444.68 48.7273 441.741 48.7273C438.907 48.7273 436.43 48.2348 434.309 47.25C432.188 46.25 430.506 44.8788 429.264 43.1364C428.036 41.3788 427.347 39.3636 427.195 37.0909H428.65C428.801 39.0909 429.43 40.8561 430.536 42.3864C431.642 43.9167 433.142 45.1136 435.036 45.9773C436.945 46.8409 439.18 47.2727 441.741 47.2727C444.407 47.2727 446.741 46.8106 448.741 45.8864C450.756 44.947 452.317 43.6439 453.423 41.9773C454.544 40.3106 455.104 38.3788 455.104 36.1818C455.104 34.5152 454.741 33.053 454.014 31.7955C453.286 30.5227 452.142 29.4015 450.582 28.4318C449.021 27.4621 446.983 26.5909 444.468 25.8182L439.195 24.1818C435.544 23.0303 432.809 21.5076 430.991 19.6136C429.188 17.7197 428.286 15.4242 428.286 12.7273C428.286 10.4394 428.885 8.39394 430.082 6.59091C431.279 4.77273 432.915 3.34091 434.991 2.29545C437.082 1.25 439.453 0.727272 442.104 0.727272C444.771 0.727272 447.112 1.25757 449.127 2.31818C451.142 3.37879 452.741 4.84091 453.923 6.70454C455.104 8.56818 455.771 10.697 455.923 13.0909H454.468Z" fill="#565656"/>
</svg>
